<?xml version="1.0" encoding="utf-8" standalone="no"?>
<!DOCTYPE svg PUBLIC "-//W3C//DTD SVG 1.1//EN"
  "http://www.w3.org/Graphics/SVG/1.1/DTD/svg11.dtd">
<svg xmlns:xlink="http://www.w3.org/1999/xlink" width="460.8pt" height="345.6pt" viewBox="0 0 460.8 345.6" xmlns="http://www.w3.org/2000/svg" version="1.1">
 <metadata>
  <rdf:RDF xmlns:dc="http://purl.org/dc/elements/1.1/" xmlns:cc="http://creativecommons.org/ns#" xmlns:rdf="http://www.w3.org/1999/02/22-rdf-syntax-ns#">
   <cc:Work>
    <dc:type rdf:resource="http://purl.org/dc/dcmitype/StillImage"/>
    <dc:date>2025-03-05T15:40:12.062646</dc:date>
    <dc:format>image/svg+xml</dc:format>
    <dc:creator>
     <cc:Agent>
      <dc:title>Matplotlib v3.9.2, https://matplotlib.org/</dc:title>
     </cc:Agent>
    </dc:creator>
   </cc:Work>
  </rdf:RDF>
 </metadata>
 <defs>
  <style type="text/css">*{stroke-linejoin: round; stroke-linecap: butt}</style>
 </defs>
 <g id="figure_1">
  <g id="patch_1">
   <path d="M 0 345.6 
L 460.8 345.6 
L 460.8 0 
L 0 0 
z
" style="fill: #ffffff"/>
  </g>
  <g id="axes_1">
   <g id="patch_2">
    <path d="M 57.6 307.584 
L 414.72 307.584 
L 414.72 41.472 
L 57.6 41.472 
z
" style="fill: #ffffff"/>
   </g>
   <g id="PathCollection_1">
    <defs>
     <path id="mf16b118913" d="M 0 3 
C 0.795609 3 1.55874 2.683901 2.12132 2.12132 
C 2.683901 1.55874 3 0.795609 3 0 
C 3 -0.795609 2.683901 -1.55874 2.12132 -2.12132 
C 1.55874 -2.683901 0.795609 -3 0 -3 
C -0.795609 -3 -1.55874 -2.683901 -2.12132 -2.12132 
C -2.683901 -1.55874 -3 -0.795609 -3 0 
C -3 0.795609 -2.683901 1.55874 -2.12132 2.12132 
C -1.55874 2.683901 -0.795609 3 0 3 
z
" style="stroke: #1f77b4"/>
    </defs>
    <g clip-path="url(#p6d4be3ff2b)">
     <use xlink:href="#mf16b118913" x="234.329241" y="154.802215" style="fill: #1f77b4; stroke: #1f77b4"/>
     <use xlink:href="#mf16b118913" x="126.314477" y="250.081477" style="fill: #1f77b4; stroke: #1f77b4"/>
     <use xlink:href="#mf16b118913" x="291.082761" y="155.546585" style="fill: #1f77b4; stroke: #1f77b4"/>
     <use xlink:href="#mf16b118913" x="266.672645" y="124.283077" style="fill: #1f77b4; stroke: #1f77b4"/>
     <use xlink:href="#mf16b118913" x="237.380506" y="131.726769" style="fill: #1f77b4; stroke: #1f77b4"/>
     <use xlink:href="#mf16b118913" x="295.354532" y="174.900185" style="fill: #1f77b4; stroke: #1f77b4"/>
     <use xlink:href="#mf16b118913" x="224.565195" y="203.930585" style="fill: #1f77b4; stroke: #1f77b4"/>
     <use xlink:href="#mf16b118913" x="225.785701" y="212.863015" style="fill: #1f77b4; stroke: #1f77b4"/>
     <use xlink:href="#mf16b118913" x="185.509009" y="225.517292" style="fill: #1f77b4; stroke: #1f77b4"/>
     <use xlink:href="#mf16b118913" x="320.985154" y="136.192985" style="fill: #1f77b4; stroke: #1f77b4"/>
     <use xlink:href="#mf16b118913" x="138.519535" y="259.013908" style="fill: #1f77b4; stroke: #1f77b4"/>
     <use xlink:href="#mf16b118913" x="217.24216" y="203.930585" style="fill: #1f77b4; stroke: #1f77b4"/>
     <use xlink:href="#mf16b118913" x="359.431087" y="125.771815" style="fill: #1f77b4; stroke: #1f77b4"/>
     <use xlink:href="#mf16b118913" x="236.770253" y="182.343877" style="fill: #1f77b4; stroke: #1f77b4"/>
     <use xlink:href="#mf16b118913" x="285.590485" y="142.892308" style="fill: #1f77b4; stroke: #1f77b4"/>
     <use xlink:href="#mf16b118913" x="256.298346" y="157.035323" style="fill: #1f77b4; stroke: #1f77b4"/>
     <use xlink:href="#mf16b118913" x="231.277977" y="222.539815" style="fill: #1f77b4; stroke: #1f77b4"/>
     <use xlink:href="#mf16b118913" x="142.181053" y="241.893415" style="fill: #1f77b4; stroke: #1f77b4"/>
     <use xlink:href="#mf16b118913" x="237.380506" y="175.644554" style="fill: #1f77b4; stroke: #1f77b4"/>
     <use xlink:href="#mf16b118913" x="270.334163" y="186.810092" style="fill: #1f77b4; stroke: #1f77b4"/>
     <use xlink:href="#mf16b118913" x="258.129105" y="162.245908" style="fill: #1f77b4; stroke: #1f77b4"/>
     <use xlink:href="#mf16b118913" x="231.88823" y="179.3664" style="fill: #1f77b4; stroke: #1f77b4"/>
     <use xlink:href="#mf16b118913" x="188.560273" y="226.261662" style="fill: #1f77b4; stroke: #1f77b4"/>
     <use xlink:href="#mf16b118913" x="191.611538" y="212.863015" style="fill: #1f77b4; stroke: #1f77b4"/>
     <use xlink:href="#mf16b118913" x="212.360137" y="195.742523" style="fill: #1f77b4; stroke: #1f77b4"/>
     <use xlink:href="#mf16b118913" x="258.129105" y="125.771815" style="fill: #1f77b4; stroke: #1f77b4"/>
     <use xlink:href="#mf16b118913" x="320.985154" y="142.892308" style="fill: #1f77b4; stroke: #1f77b4"/>
     <use xlink:href="#mf16b118913" x="144.622064" y="236.682831" style="fill: #1f77b4; stroke: #1f77b4"/>
     <use xlink:href="#mf16b118913" x="176.355215" y="230.727877" style="fill: #1f77b4; stroke: #1f77b4"/>
     <use xlink:href="#mf16b118913" x="250.195817" y="137.681723" style="fill: #1f77b4; stroke: #1f77b4"/>
     <use xlink:href="#mf16b118913" x="263.011128" y="154.802215" style="fill: #1f77b4; stroke: #1f77b4"/>
     <use xlink:href="#mf16b118913" x="308.169843" y="107.906954" style="fill: #1f77b4; stroke: #1f77b4"/>
     <use xlink:href="#mf16b118913" x="238.601012" y="168.200862" style="fill: #1f77b4; stroke: #1f77b4"/>
     <use xlink:href="#mf16b118913" x="201.375584" y="194.253785" style="fill: #1f77b4; stroke: #1f77b4"/>
     <use xlink:href="#mf16b118913" x="261.790622" y="142.892308" style="fill: #1f77b4; stroke: #1f77b4"/>
     <use xlink:href="#mf16b118913" x="233.108735" y="183.832615" style="fill: #1f77b4; stroke: #1f77b4"/>
     <use xlink:href="#mf16b118913" x="179.40648" y="186.065723" style="fill: #1f77b4; stroke: #1f77b4"/>
     <use xlink:href="#mf16b118913" x="173.914204" y="216.584862" style="fill: #1f77b4; stroke: #1f77b4"/>
     <use xlink:href="#mf16b118913" x="339.902994" y="72.9216" style="fill: #1f77b4; stroke: #1f77b4"/>
     <use xlink:href="#mf16b118913" x="267.282898" y="149.591631" style="fill: #1f77b4; stroke: #1f77b4"/>
     <use xlink:href="#mf16b118913" x="386.282215" y="98.230154" style="fill: #1f77b4; stroke: #1f77b4"/>
     <use xlink:href="#mf16b118913" x="234.329241" y="196.486892" style="fill: #1f77b4; stroke: #1f77b4"/>
     <use xlink:href="#mf16b118913" x="176.965468" y="208.3968" style="fill: #1f77b4; stroke: #1f77b4"/>
     <use xlink:href="#mf16b118913" x="281.318715" y="192.020677" style="fill: #1f77b4; stroke: #1f77b4"/>
     <use xlink:href="#mf16b118913" x="124.483718" y="259.013908" style="fill: #1f77b4; stroke: #1f77b4"/>
     <use xlink:href="#mf16b118913" x="294.134026" y="130.9824" style="fill: #1f77b4; stroke: #1f77b4"/>
     <use xlink:href="#mf16b118913" x="184.288503" y="229.239138" style="fill: #1f77b4; stroke: #1f77b4"/>
     <use xlink:href="#mf16b118913" x="170.252686" y="154.802215" style="fill: #1f77b4; stroke: #1f77b4"/>
     <use xlink:href="#mf16b118913" x="340.513247" y="93.019569" style="fill: #1f77b4; stroke: #1f77b4"/>
     <use xlink:href="#mf16b118913" x="355.159316" y="53.568" style="fill: #1f77b4; stroke: #1f77b4"/>
     <use xlink:href="#mf16b118913" x="398.487273" y="67.711015" style="fill: #1f77b4; stroke: #1f77b4"/>
     <use xlink:href="#mf16b118913" x="378.95918" y="115.350646" style="fill: #1f77b4; stroke: #1f77b4"/>
     <use xlink:href="#mf16b118913" x="324.646671" y="91.530831" style="fill: #1f77b4; stroke: #1f77b4"/>
     <use xlink:href="#mf16b118913" x="208.698619" y="203.186215" style="fill: #1f77b4; stroke: #1f77b4"/>
     <use xlink:href="#mf16b118913" x="232.498483" y="167.456492" style="fill: #1f77b4; stroke: #1f77b4"/>
     <use xlink:href="#mf16b118913" x="314.272372" y="145.125415" style="fill: #1f77b4; stroke: #1f77b4"/>
     <use xlink:href="#mf16b118913" x="170.252686" y="193.509415" style="fill: #1f77b4; stroke: #1f77b4"/>
     <use xlink:href="#mf16b118913" x="216.631907" y="253.058954" style="fill: #1f77b4; stroke: #1f77b4"/>
     <use xlink:href="#mf16b118913" x="236.16" y="167.456492" style="fill: #1f77b4; stroke: #1f77b4"/>
     <use xlink:href="#mf16b118913" x="275.216186" y="151.080369" style="fill: #1f77b4; stroke: #1f77b4"/>
     <use xlink:href="#mf16b118913" x="156.216869" y="234.449723" style="fill: #1f77b4; stroke: #1f77b4"/>
     <use xlink:href="#mf16b118913" x="148.283582" y="277.623138" style="fill: #1f77b4; stroke: #1f77b4"/>
     <use xlink:href="#mf16b118913" x="200.765332" y="241.893415" style="fill: #1f77b4; stroke: #1f77b4"/>
     <use xlink:href="#mf16b118913" x="372.856651" y="81.109662" style="fill: #1f77b4; stroke: #1f77b4"/>
     <use xlink:href="#mf16b118913" x="263.011128" y="180.110769" style="fill: #1f77b4; stroke: #1f77b4"/>
     <use xlink:href="#mf16b118913" x="277.657198" y="113.861908" style="fill: #1f77b4; stroke: #1f77b4"/>
     <use xlink:href="#mf16b118913" x="125.704224" y="276.1344" style="fill: #1f77b4; stroke: #1f77b4"/>
     <use xlink:href="#mf16b118913" x="211.139631" y="182.343877" style="fill: #1f77b4; stroke: #1f77b4"/>
     <use xlink:href="#mf16b118913" x="275.216186" y="174.900185" style="fill: #1f77b4; stroke: #1f77b4"/>
     <use xlink:href="#mf16b118913" x="259.34961" y="178.622031" style="fill: #1f77b4; stroke: #1f77b4"/>
     <use xlink:href="#mf16b118913" x="167.201422" y="222.539815" style="fill: #1f77b4; stroke: #1f77b4"/>
     <use xlink:href="#mf16b118913" x="269.72391" y="148.847262" style="fill: #1f77b4; stroke: #1f77b4"/>
     <use xlink:href="#mf16b118913" x="288.64175" y="128.004923" style="fill: #1f77b4; stroke: #1f77b4"/>
     <use xlink:href="#mf16b118913" x="328.918442" y="97.485785" style="fill: #1f77b4; stroke: #1f77b4"/>
     <use xlink:href="#mf16b118913" x="231.88823" y="141.403569" style="fill: #1f77b4; stroke: #1f77b4"/>
     <use xlink:href="#mf16b118913" x="239.211265" y="153.313477" style="fill: #1f77b4; stroke: #1f77b4"/>
     <use xlink:href="#mf16b118913" x="237.380506" y="162.990277" style="fill: #1f77b4; stroke: #1f77b4"/>
     <use xlink:href="#mf16b118913" x="362.482351" y="55.056738" style="fill: #1f77b4; stroke: #1f77b4"/>
     <use xlink:href="#mf16b118913" x="216.021654" y="232.960985" style="fill: #1f77b4; stroke: #1f77b4"/>
     <use xlink:href="#mf16b118913" x="252.026576" y="174.155815" style="fill: #1f77b4; stroke: #1f77b4"/>
     <use xlink:href="#mf16b118913" x="279.487956" y="141.403569" style="fill: #1f77b4; stroke: #1f77b4"/>
     <use xlink:href="#mf16b118913" x="186.119262" y="233.705354" style="fill: #1f77b4; stroke: #1f77b4"/>
     <use xlink:href="#mf16b118913" x="154.386111" y="235.938462" style="fill: #1f77b4; stroke: #1f77b4"/>
     <use xlink:href="#mf16b118913" x="328.918442" y="137.681723" style="fill: #1f77b4; stroke: #1f77b4"/>
     <use xlink:href="#mf16b118913" x="73.832727" y="283.578092" style="fill: #1f77b4; stroke: #1f77b4"/>
     <use xlink:href="#mf16b118913" x="106.176131" y="287.299938" style="fill: #1f77b4; stroke: #1f77b4"/>
     <use xlink:href="#mf16b118913" x="278.26745" y="191.276308" style="fill: #1f77b4; stroke: #1f77b4"/>
     <use xlink:href="#mf16b118913" x="307.55959" y="133.215508" style="fill: #1f77b4; stroke: #1f77b4"/>
     <use xlink:href="#mf16b118913" x="102.514614" y="287.299938" style="fill: #1f77b4; stroke: #1f77b4"/>
     <use xlink:href="#mf16b118913" x="205.647355" y="194.998154" style="fill: #1f77b4; stroke: #1f77b4"/>
     <use xlink:href="#mf16b118913" x="247.754805" y="199.464369" style="fill: #1f77b4; stroke: #1f77b4"/>
     <use xlink:href="#mf16b118913" x="193.442297" y="238.171569" style="fill: #1f77b4; stroke: #1f77b4"/>
     <use xlink:href="#mf16b118913" x="295.964785" y="99.718892" style="fill: #1f77b4; stroke: #1f77b4"/>
     <use xlink:href="#mf16b118913" x="228.226712" y="168.200862" style="fill: #1f77b4; stroke: #1f77b4"/>
     <use xlink:href="#mf16b118913" x="169.642433" y="217.329231" style="fill: #1f77b4; stroke: #1f77b4"/>
     <use xlink:href="#mf16b118913" x="218.462666" y="189.787569" style="fill: #1f77b4; stroke: #1f77b4"/>
     <use xlink:href="#mf16b118913" x="247.754805" y="203.186215" style="fill: #1f77b4; stroke: #1f77b4"/>
     <use xlink:href="#mf16b118913" x="178.796227" y="186.065723" style="fill: #1f77b4; stroke: #1f77b4"/>
     <use xlink:href="#mf16b118913" x="283.149474" y="112.373169" style="fill: #1f77b4; stroke: #1f77b4"/>
     <use xlink:href="#mf16b118913" x="217.24216" y="156.290954" style="fill: #1f77b4; stroke: #1f77b4"/>
     <use xlink:href="#mf16b118913" x="299.016049" y="89.297723" style="fill: #1f77b4; stroke: #1f77b4"/>
     <use xlink:href="#mf16b118913" x="223.344689" y="135.448615" style="fill: #1f77b4; stroke: #1f77b4"/>
     <use xlink:href="#mf16b118913" x="126.92473" y="295.488" style="fill: #1f77b4; stroke: #1f77b4"/>
     <use xlink:href="#mf16b118913" x="244.093288" y="174.155815" style="fill: #1f77b4; stroke: #1f77b4"/>
     <use xlink:href="#mf16b118913" x="278.877703" y="119.072492" style="fill: #1f77b4; stroke: #1f77b4"/>
     <use xlink:href="#mf16b118913" x="220.293424" y="187.554462" style="fill: #1f77b4; stroke: #1f77b4"/>
     <use xlink:href="#mf16b118913" x="187.950021" y="234.449723" style="fill: #1f77b4; stroke: #1f77b4"/>
     <use xlink:href="#mf16b118913" x="200.155079" y="204.674954" style="fill: #1f77b4; stroke: #1f77b4"/>
     <use xlink:href="#mf16b118913" x="287.421244" y="133.959877" style="fill: #1f77b4; stroke: #1f77b4"/>
     <use xlink:href="#mf16b118913" x="288.031497" y="95.252677" style="fill: #1f77b4; stroke: #1f77b4"/>
     <use xlink:href="#mf16b118913" x="313.051866" y="117.583754" style="fill: #1f77b4; stroke: #1f77b4"/>
     <use xlink:href="#mf16b118913" x="144.622064" y="229.983508" style="fill: #1f77b4; stroke: #1f77b4"/>
     <use xlink:href="#mf16b118913" x="337.461982" y="92.2752" style="fill: #1f77b4; stroke: #1f77b4"/>
     <use xlink:href="#mf16b118913" x="237.380506" y="221.051077" style="fill: #1f77b4; stroke: #1f77b4"/>
     <use xlink:href="#mf16b118913" x="170.252686" y="258.269538" style="fill: #1f77b4; stroke: #1f77b4"/>
     <use xlink:href="#mf16b118913" x="323.426165" y="84.087138" style="fill: #1f77b4; stroke: #1f77b4"/>
     <use xlink:href="#mf16b118913" x="365.533616" y="149.591631" style="fill: #1f77b4; stroke: #1f77b4"/>
     <use xlink:href="#mf16b118913" x="248.365058" y="174.900185" style="fill: #1f77b4; stroke: #1f77b4"/>
     <use xlink:href="#mf16b118913" x="265.452139" y="183.088246" style="fill: #1f77b4; stroke: #1f77b4"/>
     <use xlink:href="#mf16b118913" x="264.841887" y="200.208738" style="fill: #1f77b4; stroke: #1f77b4"/>
     <use xlink:href="#mf16b118913" x="133.027259" y="268.690708" style="fill: #1f77b4; stroke: #1f77b4"/>
     <use xlink:href="#mf16b118913" x="210.529378" y="172.667077" style="fill: #1f77b4; stroke: #1f77b4"/>
     <use xlink:href="#mf16b118913" x="126.314477" y="247.848369" style="fill: #1f77b4; stroke: #1f77b4"/>
     <use xlink:href="#mf16b118913" x="125.093971" y="226.261662" style="fill: #1f77b4; stroke: #1f77b4"/>
     <use xlink:href="#mf16b118913" x="183.67825" y="225.517292" style="fill: #1f77b4; stroke: #1f77b4"/>
     <use xlink:href="#mf16b118913" x="261.180369" y="162.245908" style="fill: #1f77b4; stroke: #1f77b4"/>
     <use xlink:href="#mf16b118913" x="174.524457" y="203.930585" style="fill: #1f77b4; stroke: #1f77b4"/>
     <use xlink:href="#mf16b118913" x="227.616459" y="165.967754" style="fill: #1f77b4; stroke: #1f77b4"/>
     <use xlink:href="#mf16b118913" x="297.795543" y="148.847262" style="fill: #1f77b4; stroke: #1f77b4"/>
     <use xlink:href="#mf16b118913" x="258.739357" y="165.223385" style="fill: #1f77b4; stroke: #1f77b4"/>
     <use xlink:href="#mf16b118913" x="221.51393" y="212.118646" style="fill: #1f77b4; stroke: #1f77b4"/>
     <use xlink:href="#mf16b118913" x="202.59609" y="247.848369" style="fill: #1f77b4; stroke: #1f77b4"/>
     <use xlink:href="#mf16b118913" x="170.252686" y="212.863015" style="fill: #1f77b4; stroke: #1f77b4"/>
     <use xlink:href="#mf16b118913" x="183.067997" y="205.419323" style="fill: #1f77b4; stroke: #1f77b4"/>
     <use xlink:href="#mf16b118913" x="253.247081" y="186.810092" style="fill: #1f77b4; stroke: #1f77b4"/>
     <use xlink:href="#mf16b118913" x="186.119262" y="203.930585" style="fill: #1f77b4; stroke: #1f77b4"/>
     <use xlink:href="#mf16b118913" x="158.047628" y="241.149046" style="fill: #1f77b4; stroke: #1f77b4"/>
     <use xlink:href="#mf16b118913" x="249.585564" y="164.479015" style="fill: #1f77b4; stroke: #1f77b4"/>
     <use xlink:href="#mf16b118913" x="296.575038" y="107.906954" style="fill: #1f77b4; stroke: #1f77b4"/>
     <use xlink:href="#mf16b118913" x="252.636828" y="218.817969" style="fill: #1f77b4; stroke: #1f77b4"/>
     <use xlink:href="#mf16b118913" x="296.575038" y="162.990277" style="fill: #1f77b4; stroke: #1f77b4"/>
     <use xlink:href="#mf16b118913" x="226.395954" y="160.757169" style="fill: #1f77b4; stroke: #1f77b4"/>
     <use xlink:href="#mf16b118913" x="236.770253" y="171.178338" style="fill: #1f77b4; stroke: #1f77b4"/>
     <use xlink:href="#mf16b118913" x="109.837649" y="282.833723" style="fill: #1f77b4; stroke: #1f77b4"/>
     <use xlink:href="#mf16b118913" x="190.391032" y="217.329231" style="fill: #1f77b4; stroke: #1f77b4"/>
     <use xlink:href="#mf16b118913" x="170.252686" y="235.194092" style="fill: #1f77b4; stroke: #1f77b4"/>
     <use xlink:href="#mf16b118913" x="184.288503" y="214.351754" style="fill: #1f77b4; stroke: #1f77b4"/>
     <use xlink:href="#mf16b118913" x="159.268134" y="232.960985" style="fill: #1f77b4; stroke: #1f77b4"/>
     <use xlink:href="#mf16b118913" x="275.826439" y="144.381046" style="fill: #1f77b4; stroke: #1f77b4"/>
     <use xlink:href="#mf16b118913" x="319.154395" y="124.283077" style="fill: #1f77b4; stroke: #1f77b4"/>
     <use xlink:href="#mf16b118913" x="198.32432" y="194.253785" style="fill: #1f77b4; stroke: #1f77b4"/>
     <use xlink:href="#mf16b118913" x="187.339768" y="192.020677" style="fill: #1f77b4; stroke: #1f77b4"/>
     <use xlink:href="#mf16b118913" x="263.621381" y="168.200862" style="fill: #1f77b4; stroke: #1f77b4"/>
     <use xlink:href="#mf16b118913" x="298.405796" y="100.463262" style="fill: #1f77b4; stroke: #1f77b4"/>
     <use xlink:href="#mf16b118913" x="245.924046" y="185.321354" style="fill: #1f77b4; stroke: #1f77b4"/>
     <use xlink:href="#mf16b118913" x="239.821517" y="167.456492" style="fill: #1f77b4; stroke: #1f77b4"/>
     <use xlink:href="#mf16b118913" x="264.231634" y="164.479015" style="fill: #1f77b4; stroke: #1f77b4"/>
     <use xlink:href="#mf16b118913" x="208.698619" y="196.486892" style="fill: #1f77b4; stroke: #1f77b4"/>
     <use xlink:href="#mf16b118913" x="176.965468" y="171.178338" style="fill: #1f77b4; stroke: #1f77b4"/>
     <use xlink:href="#mf16b118913" x="345.39527" y="93.763938" style="fill: #1f77b4; stroke: #1f77b4"/>
     <use xlink:href="#mf16b118913" x="248.975311" y="179.3664" style="fill: #1f77b4; stroke: #1f77b4"/>
     <use xlink:href="#mf16b118913" x="259.34961" y="149.591631" style="fill: #1f77b4; stroke: #1f77b4"/>
     <use xlink:href="#mf16b118913" x="151.334846" y="207.652431" style="fill: #1f77b4; stroke: #1f77b4"/>
     <use xlink:href="#mf16b118913" x="358.820834" y="106.418215" style="fill: #1f77b4; stroke: #1f77b4"/>
     <use xlink:href="#mf16b118913" x="366.754122" y="113.117538" style="fill: #1f77b4; stroke: #1f77b4"/>
     <use xlink:href="#mf16b118913" x="314.882625" y="93.763938" style="fill: #1f77b4; stroke: #1f77b4"/>
     <use xlink:href="#mf16b118913" x="338.682488" y="101.207631" style="fill: #1f77b4; stroke: #1f77b4"/>
     <use xlink:href="#mf16b118913" x="310.000602" y="129.493662" style="fill: #1f77b4; stroke: #1f77b4"/>
     <use xlink:href="#mf16b118913" x="341.733753" y="135.448615" style="fill: #1f77b4; stroke: #1f77b4"/>
     <use xlink:href="#mf16b118913" x="382.010444" y="72.177231" style="fill: #1f77b4; stroke: #1f77b4"/>
     <use xlink:href="#mf16b118913" x="193.442297" y="183.832615" style="fill: #1f77b4; stroke: #1f77b4"/>
     <use xlink:href="#mf16b118913" x="302.677567" y="117.583754" style="fill: #1f77b4; stroke: #1f77b4"/>
     <use xlink:href="#mf16b118913" x="236.770253" y="210.629908" style="fill: #1f77b4; stroke: #1f77b4"/>
     <use xlink:href="#mf16b118913" x="225.785701" y="206.908062" style="fill: #1f77b4; stroke: #1f77b4"/>
     <use xlink:href="#mf16b118913" x="260.570116" y="174.900185" style="fill: #1f77b4; stroke: #1f77b4"/>
     <use xlink:href="#mf16b118913" x="243.483035" y="136.937354" style="fill: #1f77b4; stroke: #1f77b4"/>
     <use xlink:href="#mf16b118913" x="197.714067" y="157.035323" style="fill: #1f77b4; stroke: #1f77b4"/>
     <use xlink:href="#mf16b118913" x="246.534299" y="126.516185" style="fill: #1f77b4; stroke: #1f77b4"/>
     <use xlink:href="#mf16b118913" x="311.221107" y="127.260554" style="fill: #1f77b4; stroke: #1f77b4"/>
     <use xlink:href="#mf16b118913" x="249.585564" y="171.922708" style="fill: #1f77b4; stroke: #1f77b4"/>
     <use xlink:href="#mf16b118913" x="191.611538" y="194.998154" style="fill: #1f77b4; stroke: #1f77b4"/>
     <use xlink:href="#mf16b118913" x="315.492878" y="107.906954" style="fill: #1f77b4; stroke: #1f77b4"/>
     <use xlink:href="#mf16b118913" x="172.693698" y="242.637785" style="fill: #1f77b4; stroke: #1f77b4"/>
     <use xlink:href="#mf16b118913" x="258.129105" y="194.998154" style="fill: #1f77b4; stroke: #1f77b4"/>
     <use xlink:href="#mf16b118913" x="294.744279" y="163.734646" style="fill: #1f77b4; stroke: #1f77b4"/>
     <use xlink:href="#mf16b118913" x="198.934573" y="160.757169" style="fill: #1f77b4; stroke: #1f77b4"/>
     <use xlink:href="#mf16b118913" x="292.303267" y="139.170462" style="fill: #1f77b4; stroke: #1f77b4"/>
     <use xlink:href="#mf16b118913" x="195.883308" y="215.840492" style="fill: #1f77b4; stroke: #1f77b4"/>
     <use xlink:href="#mf16b118913" x="262.400875" y="168.200862" style="fill: #1f77b4; stroke: #1f77b4"/>
     <use xlink:href="#mf16b118913" x="308.780096" y="95.252677" style="fill: #1f77b4; stroke: #1f77b4"/>
     <use xlink:href="#mf16b118913" x="191.611538" y="197.231262" style="fill: #1f77b4; stroke: #1f77b4"/>
     <use xlink:href="#mf16b118913" x="258.129105" y="138.426092" style="fill: #1f77b4; stroke: #1f77b4"/>
     <use xlink:href="#mf16b118913" x="317.323636" y="118.328123" style="fill: #1f77b4; stroke: #1f77b4"/>
     <use xlink:href="#mf16b118913" x="92.750567" y="253.058954" style="fill: #1f77b4; stroke: #1f77b4"/>
     <use xlink:href="#mf16b118913" x="295.354532" y="124.283077" style="fill: #1f77b4; stroke: #1f77b4"/>
     <use xlink:href="#mf16b118913" x="236.770253" y="214.351754" style="fill: #1f77b4; stroke: #1f77b4"/>
     <use xlink:href="#mf16b118913" x="173.303951" y="206.163692" style="fill: #1f77b4; stroke: #1f77b4"/>
     <use xlink:href="#mf16b118913" x="253.857334" y="156.290954" style="fill: #1f77b4; stroke: #1f77b4"/>
     <use xlink:href="#mf16b118913" x="279.487956" y="102.696369" style="fill: #1f77b4; stroke: #1f77b4"/>
     <use xlink:href="#mf16b118913" x="193.442297" y="224.028554" style="fill: #1f77b4; stroke: #1f77b4"/>
    </g>
   </g>
   <g id="matplotlib.axis_1">
    <g id="xtick_1">
     <g id="line2d_1">
      <defs>
       <path id="m876989c67a" d="M 0 0 
L 0 3.5 
" style="stroke: #000000; stroke-width: 0.8"/>
      </defs>
      <g>
       <use xlink:href="#m876989c67a" x="57.966152" y="307.584" style="stroke: #000000; stroke-width: 0.8"/>
      </g>
     </g>
     <g id="text_1">
      <!-- 4 -->
      <g transform="translate(54.784902 322.182437) scale(0.1 -0.1)">
       <defs>
        <path id="DejaVuSans-34" d="M 2419 4116 
L 825 1625 
L 2419 1625 
L 2419 4116 
z
M 2253 4666 
L 3047 4666 
L 3047 1625 
L 3713 1625 
L 3713 1100 
L 3047 1100 
L 3047 0 
L 2419 0 
L 2419 1100 
L 313 1100 
L 313 1709 
L 2253 4666 
z
" transform="scale(0.015625)"/>
       </defs>
       <use xlink:href="#DejaVuSans-34"/>
      </g>
     </g>
    </g>
    <g id="xtick_2">
     <g id="line2d_2">
      <g>
       <use xlink:href="#m876989c67a" x="118.991442" y="307.584" style="stroke: #000000; stroke-width: 0.8"/>
      </g>
     </g>
     <g id="text_2">
      <!-- 5 -->
      <g transform="translate(115.810192 322.182437) scale(0.1 -0.1)">
       <defs>
        <path id="DejaVuSans-35" d="M 691 4666 
L 3169 4666 
L 3169 4134 
L 1269 4134 
L 1269 2991 
Q 1406 3038 1543 3061 
Q 1681 3084 1819 3084 
Q 2600 3084 3056 2656 
Q 3513 2228 3513 1497 
Q 3513 744 3044 326 
Q 2575 -91 1722 -91 
Q 1428 -91 1123 -41 
Q 819 9 494 109 
L 494 744 
Q 775 591 1075 516 
Q 1375 441 1709 441 
Q 2250 441 2565 725 
Q 2881 1009 2881 1497 
Q 2881 1984 2565 2268 
Q 2250 2553 1709 2553 
Q 1456 2553 1204 2497 
Q 953 2441 691 2322 
L 691 4666 
z
" transform="scale(0.015625)"/>
       </defs>
       <use xlink:href="#DejaVuSans-35"/>
      </g>
     </g>
    </g>
    <g id="xtick_3">
     <g id="line2d_3">
      <g>
       <use xlink:href="#m876989c67a" x="180.016733" y="307.584" style="stroke: #000000; stroke-width: 0.8"/>
      </g>
     </g>
     <g id="text_3">
      <!-- 6 -->
      <g transform="translate(176.835483 322.182437) scale(0.1 -0.1)">
       <defs>
        <path id="DejaVuSans-36" d="M 2113 2584 
Q 1688 2584 1439 2293 
Q 1191 2003 1191 1497 
Q 1191 994 1439 701 
Q 1688 409 2113 409 
Q 2538 409 2786 701 
Q 3034 994 3034 1497 
Q 3034 2003 2786 2293 
Q 2538 2584 2113 2584 
z
M 3366 4563 
L 3366 3988 
Q 3128 4100 2886 4159 
Q 2644 4219 2406 4219 
Q 1781 4219 1451 3797 
Q 1122 3375 1075 2522 
Q 1259 2794 1537 2939 
Q 1816 3084 2150 3084 
Q 2853 3084 3261 2657 
Q 3669 2231 3669 1497 
Q 3669 778 3244 343 
Q 2819 -91 2113 -91 
Q 1303 -91 875 529 
Q 447 1150 447 2328 
Q 447 3434 972 4092 
Q 1497 4750 2381 4750 
Q 2619 4750 2861 4703 
Q 3103 4656 3366 4563 
z
" transform="scale(0.015625)"/>
       </defs>
       <use xlink:href="#DejaVuSans-36"/>
      </g>
     </g>
    </g>
    <g id="xtick_4">
     <g id="line2d_4">
      <g>
       <use xlink:href="#m876989c67a" x="241.042023" y="307.584" style="stroke: #000000; stroke-width: 0.8"/>
      </g>
     </g>
     <g id="text_4">
      <!-- 7 -->
      <g transform="translate(237.860773 322.182437) scale(0.1 -0.1)">
       <defs>
        <path id="DejaVuSans-37" d="M 525 4666 
L 3525 4666 
L 3525 4397 
L 1831 0 
L 1172 0 
L 2766 4134 
L 525 4134 
L 525 4666 
z
" transform="scale(0.015625)"/>
       </defs>
       <use xlink:href="#DejaVuSans-37"/>
      </g>
     </g>
    </g>
    <g id="xtick_5">
     <g id="line2d_5">
      <g>
       <use xlink:href="#m876989c67a" x="302.067314" y="307.584" style="stroke: #000000; stroke-width: 0.8"/>
      </g>
     </g>
     <g id="text_5">
      <!-- 8 -->
      <g transform="translate(298.886064 322.182437) scale(0.1 -0.1)">
       <defs>
        <path id="DejaVuSans-38" d="M 2034 2216 
Q 1584 2216 1326 1975 
Q 1069 1734 1069 1313 
Q 1069 891 1326 650 
Q 1584 409 2034 409 
Q 2484 409 2743 651 
Q 3003 894 3003 1313 
Q 3003 1734 2745 1975 
Q 2488 2216 2034 2216 
z
M 1403 2484 
Q 997 2584 770 2862 
Q 544 3141 544 3541 
Q 544 4100 942 4425 
Q 1341 4750 2034 4750 
Q 2731 4750 3128 4425 
Q 3525 4100 3525 3541 
Q 3525 3141 3298 2862 
Q 3072 2584 2669 2484 
Q 3125 2378 3379 2068 
Q 3634 1759 3634 1313 
Q 3634 634 3220 271 
Q 2806 -91 2034 -91 
Q 1263 -91 848 271 
Q 434 634 434 1313 
Q 434 1759 690 2068 
Q 947 2378 1403 2484 
z
M 1172 3481 
Q 1172 3119 1398 2916 
Q 1625 2713 2034 2713 
Q 2441 2713 2670 2916 
Q 2900 3119 2900 3481 
Q 2900 3844 2670 4047 
Q 2441 4250 2034 4250 
Q 1625 4250 1398 4047 
Q 1172 3844 1172 3481 
z
" transform="scale(0.015625)"/>
       </defs>
       <use xlink:href="#DejaVuSans-38"/>
      </g>
     </g>
    </g>
    <g id="xtick_6">
     <g id="line2d_6">
      <g>
       <use xlink:href="#m876989c67a" x="363.092604" y="307.584" style="stroke: #000000; stroke-width: 0.8"/>
      </g>
     </g>
     <g id="text_6">
      <!-- 9 -->
      <g transform="translate(359.911354 322.182437) scale(0.1 -0.1)">
       <defs>
        <path id="DejaVuSans-39" d="M 703 97 
L 703 672 
Q 941 559 1184 500 
Q 1428 441 1663 441 
Q 2288 441 2617 861 
Q 2947 1281 2994 2138 
Q 2813 1869 2534 1725 
Q 2256 1581 1919 1581 
Q 1219 1581 811 2004 
Q 403 2428 403 3163 
Q 403 3881 828 4315 
Q 1253 4750 1959 4750 
Q 2769 4750 3195 4129 
Q 3622 3509 3622 2328 
Q 3622 1225 3098 567 
Q 2575 -91 1691 -91 
Q 1453 -91 1209 -44 
Q 966 3 703 97 
z
M 1959 2075 
Q 2384 2075 2632 2365 
Q 2881 2656 2881 3163 
Q 2881 3666 2632 3958 
Q 2384 4250 1959 4250 
Q 1534 4250 1286 3958 
Q 1038 3666 1038 3163 
Q 1038 2656 1286 2365 
Q 1534 2075 1959 2075 
z
" transform="scale(0.015625)"/>
       </defs>
       <use xlink:href="#DejaVuSans-39"/>
      </g>
     </g>
    </g>
   </g>
   <g id="matplotlib.axis_2">
    <g id="ytick_1">
     <g id="line2d_7">
      <defs>
       <path id="m6524cda383" d="M 0 0 
L -3.5 0 
" style="stroke: #000000; stroke-width: 0.8"/>
      </defs>
      <g>
       <use xlink:href="#m6524cda383" x="57.6" y="285.8112" style="stroke: #000000; stroke-width: 0.8"/>
      </g>
     </g>
     <g id="text_7">
      <!-- 1.5 -->
      <g transform="translate(34.696875 289.610419) scale(0.1 -0.1)">
       <defs>
        <path id="DejaVuSans-31" d="M 794 531 
L 1825 531 
L 1825 4091 
L 703 3866 
L 703 4441 
L 1819 4666 
L 2450 4666 
L 2450 531 
L 3481 531 
L 3481 0 
L 794 0 
L 794 531 
z
" transform="scale(0.015625)"/>
        <path id="DejaVuSans-2e" d="M 684 794 
L 1344 794 
L 1344 0 
L 684 0 
L 684 794 
z
" transform="scale(0.015625)"/>
       </defs>
       <use xlink:href="#DejaVuSans-31"/>
       <use xlink:href="#DejaVuSans-2e" x="63.623047"/>
       <use xlink:href="#DejaVuSans-35" x="95.410156"/>
      </g>
     </g>
    </g>
    <g id="ytick_2">
     <g id="line2d_8">
      <g>
       <use xlink:href="#m6524cda383" x="57.6" y="248.592738" style="stroke: #000000; stroke-width: 0.8"/>
      </g>
     </g>
     <g id="text_8">
      <!-- 2.0 -->
      <g transform="translate(34.696875 252.391957) scale(0.1 -0.1)">
       <defs>
        <path id="DejaVuSans-32" d="M 1228 531 
L 3431 531 
L 3431 0 
L 469 0 
L 469 531 
Q 828 903 1448 1529 
Q 2069 2156 2228 2338 
Q 2531 2678 2651 2914 
Q 2772 3150 2772 3378 
Q 2772 3750 2511 3984 
Q 2250 4219 1831 4219 
Q 1534 4219 1204 4116 
Q 875 4013 500 3803 
L 500 4441 
Q 881 4594 1212 4672 
Q 1544 4750 1819 4750 
Q 2544 4750 2975 4387 
Q 3406 4025 3406 3419 
Q 3406 3131 3298 2873 
Q 3191 2616 2906 2266 
Q 2828 2175 2409 1742 
Q 1991 1309 1228 531 
z
" transform="scale(0.015625)"/>
        <path id="DejaVuSans-30" d="M 2034 4250 
Q 1547 4250 1301 3770 
Q 1056 3291 1056 2328 
Q 1056 1369 1301 889 
Q 1547 409 2034 409 
Q 2525 409 2770 889 
Q 3016 1369 3016 2328 
Q 3016 3291 2770 3770 
Q 2525 4250 2034 4250 
z
M 2034 4750 
Q 2819 4750 3233 4129 
Q 3647 3509 3647 2328 
Q 3647 1150 3233 529 
Q 2819 -91 2034 -91 
Q 1250 -91 836 529 
Q 422 1150 422 2328 
Q 422 3509 836 4129 
Q 1250 4750 2034 4750 
z
" transform="scale(0.015625)"/>
       </defs>
       <use xlink:href="#DejaVuSans-32"/>
       <use xlink:href="#DejaVuSans-2e" x="63.623047"/>
       <use xlink:href="#DejaVuSans-30" x="95.410156"/>
      </g>
     </g>
    </g>
    <g id="ytick_3">
     <g id="line2d_9">
      <g>
       <use xlink:href="#m6524cda383" x="57.6" y="211.374277" style="stroke: #000000; stroke-width: 0.8"/>
      </g>
     </g>
     <g id="text_9">
      <!-- 2.5 -->
      <g transform="translate(34.696875 215.173496) scale(0.1 -0.1)">
       <use xlink:href="#DejaVuSans-32"/>
       <use xlink:href="#DejaVuSans-2e" x="63.623047"/>
       <use xlink:href="#DejaVuSans-35" x="95.410156"/>
      </g>
     </g>
    </g>
    <g id="ytick_4">
     <g id="line2d_10">
      <g>
       <use xlink:href="#m6524cda383" x="57.6" y="174.155815" style="stroke: #000000; stroke-width: 0.8"/>
      </g>
     </g>
     <g id="text_10">
      <!-- 3.0 -->
      <g transform="translate(34.696875 177.955034) scale(0.1 -0.1)">
       <defs>
        <path id="DejaVuSans-33" d="M 2597 2516 
Q 3050 2419 3304 2112 
Q 3559 1806 3559 1356 
Q 3559 666 3084 287 
Q 2609 -91 1734 -91 
Q 1441 -91 1130 -33 
Q 819 25 488 141 
L 488 750 
Q 750 597 1062 519 
Q 1375 441 1716 441 
Q 2309 441 2620 675 
Q 2931 909 2931 1356 
Q 2931 1769 2642 2001 
Q 2353 2234 1838 2234 
L 1294 2234 
L 1294 2753 
L 1863 2753 
Q 2328 2753 2575 2939 
Q 2822 3125 2822 3475 
Q 2822 3834 2567 4026 
Q 2313 4219 1838 4219 
Q 1578 4219 1281 4162 
Q 984 4106 628 3988 
L 628 4550 
Q 988 4650 1302 4700 
Q 1616 4750 1894 4750 
Q 2613 4750 3031 4423 
Q 3450 4097 3450 3541 
Q 3450 3153 3228 2886 
Q 3006 2619 2597 2516 
z
" transform="scale(0.015625)"/>
       </defs>
       <use xlink:href="#DejaVuSans-33"/>
       <use xlink:href="#DejaVuSans-2e" x="63.623047"/>
       <use xlink:href="#DejaVuSans-30" x="95.410156"/>
      </g>
     </g>
    </g>
    <g id="ytick_5">
     <g id="line2d_11">
      <g>
       <use xlink:href="#m6524cda383" x="57.6" y="136.937354" style="stroke: #000000; stroke-width: 0.8"/>
      </g>
     </g>
     <g id="text_11">
      <!-- 3.5 -->
      <g transform="translate(34.696875 140.736573) scale(0.1 -0.1)">
       <use xlink:href="#DejaVuSans-33"/>
       <use xlink:href="#DejaVuSans-2e" x="63.623047"/>
       <use xlink:href="#DejaVuSans-35" x="95.410156"/>
      </g>
     </g>
    </g>
    <g id="ytick_6">
     <g id="line2d_12">
      <g>
       <use xlink:href="#m6524cda383" x="57.6" y="99.718892" style="stroke: #000000; stroke-width: 0.8"/>
      </g>
     </g>
     <g id="text_12">
      <!-- 4.0 -->
      <g transform="translate(34.696875 103.518111) scale(0.1 -0.1)">
       <use xlink:href="#DejaVuSans-34"/>
       <use xlink:href="#DejaVuSans-2e" x="63.623047"/>
       <use xlink:href="#DejaVuSans-30" x="95.410156"/>
      </g>
     </g>
    </g>
    <g id="ytick_7">
     <g id="line2d_13">
      <g>
       <use xlink:href="#m6524cda383" x="57.6" y="62.500431" style="stroke: #000000; stroke-width: 0.8"/>
      </g>
     </g>
     <g id="text_13">
      <!-- 4.5 -->
      <g transform="translate(34.696875 66.29965) scale(0.1 -0.1)">
       <use xlink:href="#DejaVuSans-34"/>
       <use xlink:href="#DejaVuSans-2e" x="63.623047"/>
       <use xlink:href="#DejaVuSans-35" x="95.410156"/>
      </g>
     </g>
    </g>
   </g>
   <g id="line2d_14">
    <path d="M 249.585564 167.63029 
L 398.487273 66.291653 
L 73.832727 287.243107 
L 341.733753 104.916626 
" clip-path="url(#p6d4be3ff2b)" style="fill: none; stroke: #ff0000; stroke-width: 1.5; stroke-linecap: square"/>
   </g>
   <g id="patch_3">
    <path d="M 57.6 307.584 
L 57.6 41.472 
" style="fill: none; stroke: #000000; stroke-width: 0.8; stroke-linejoin: miter; stroke-linecap: square"/>
   </g>
   <g id="patch_4">
    <path d="M 414.72 307.584 
L 414.72 41.472 
" style="fill: none; stroke: #000000; stroke-width: 0.8; stroke-linejoin: miter; stroke-linecap: square"/>
   </g>
   <g id="patch_5">
    <path d="M 57.6 307.584 
L 414.72 307.584 
" style="fill: none; stroke: #000000; stroke-width: 0.8; stroke-linejoin: miter; stroke-linecap: square"/>
   </g>
   <g id="patch_6">
    <path d="M 57.6 41.472 
L 414.72 41.472 
" style="fill: none; stroke: #000000; stroke-width: 0.8; stroke-linejoin: miter; stroke-linecap: square"/>
   </g>
  </g>
 </g>
 <defs>
  <clipPath id="p6d4be3ff2b">
   <rect x="57.6" y="41.472" width="357.12" height="266.112"/>
  </clipPath>
 </defs>
</svg>
